<svg width="32" height="32" fill="none" xmlns="http://www.w3.org/2000/svg"><path d="M27.113 6.305a.82.82 0 0 0-.598-.252c-.114 0-.355.094-.723.28-.367.185-.757.392-1.168.623-.411.23-.898.438-1.46.624-.562.185-1.082.28-1.56.28-.442 0-.832-.085-1.168-.253-1.114-.522-2.084-.912-2.907-1.169a8.879 8.879 0 0 0-2.655-.385c-1.636 0-3.5.532-5.589 1.594-.431.215-.74.381-.94.503l-.199-1.455a2.11 2.11 0 0 0 .738-1.598 2.124 2.124 0 1 0-4.248 0c0 .766.409 1.431 1.016 1.805l2.87 21.046a1.25 1.25 0 0 0 2.476-.338l-1.153-8.459c2.093-1.038 3.903-1.561 5.426-1.561.647 0 1.277.096 1.892.291.615.195 1.127.407 1.534.637.407.23.887.443 1.44.637.553.195 1.1.293 1.639.293 1.363 0 2.995-.514 4.898-1.54.239-.125.414-.247.524-.366.111-.12.166-.29.166-.51V6.903a.82.82 0 0 0-.25-.598Z" fill="#F0145A"/></svg>