<svg width="129" height="33" fill="none" xmlns="http://www.w3.org/2000/svg"><g clip-path="url(#a)" fill="#000"><path d="M6.651.256.304 3.898 6.65 7.539.304 11.124l6.347 3.641-6.347 3.584 6.347 3.642 8.252-4.666 4.501 4.666v-7.198l6.348-3.641L6.652.256Zm11.6 18.72L7.804 8.164l10.445 5.917v4.893ZM128.701 16.5h-2.251V12.86h-2.019V16.5h-2.309v1.935h2.309v9.445h2.019v-9.474h2.251V16.5Zm-11.541-.284a3.852 3.852 0 0 0-1.935.402c-.598.3-1.105.75-1.47 1.305V16.5h-2.02v11.38h2.02v-6.515a3.28 3.28 0 0 1 .17-1.34c.149-.43.386-.827.696-1.164a3.008 3.008 0 0 1 2.019-.796 2.362 2.362 0 0 1 1.731.626 2.348 2.348 0 0 1 .635 1.82v7.283h2.02v-7.396a4.903 4.903 0 0 0-.519-2.276 3.85 3.85 0 0 0-1.385-1.48 4.333 4.333 0 0 0-1.962-.455v.029Zm-16.591 5.149a3.753 3.753 0 0 1 1.27-2.39 3.992 3.992 0 0 1 2.596-.91 3.703 3.703 0 0 1 2.424.853c.358.307.65.682.858 1.102.208.42.329.878.354 1.345h-7.502Zm9.522 1.707c.048-.301.067-.606.057-.91a6.787 6.787 0 0 0-.692-3.016 5.63 5.63 0 0 0-1.962-2.22 5.253 5.253 0 0 0-3.001-.796 6.333 6.333 0 0 0-3.116.797 5.535 5.535 0 0 0-2.135 2.162 6.07 6.07 0 0 0-.75 3.072 6.07 6.07 0 0 0 .75 3.073 5.535 5.535 0 0 0 2.135 2.162 6.333 6.333 0 0 0 3.116.796 6.064 6.064 0 0 0 3.347-.967 4.834 4.834 0 0 0 1.904-2.503h-2.077a2.461 2.461 0 0 1-1.212 1.195 4.411 4.411 0 0 1-4.559-.399 3.81 3.81 0 0 1-1.327-2.446h9.522Zm-19.476 3.1a4.318 4.318 0 0 1-2.078-.512 4.125 4.125 0 0 1-1.5-1.479 4.304 4.304 0 0 1 0-4.096 4.125 4.125 0 0 1 1.5-1.48 4.465 4.465 0 0 1 4.155 0 4.125 4.125 0 0 1 1.5 1.48 4.304 4.304 0 0 1 0 4.096 4.125 4.125 0 0 1-1.5 1.48 4.318 4.318 0 0 1-2.077.512Zm4.097-9.672v1.992a5.127 5.127 0 0 0-1.847-1.65 5.404 5.404 0 0 0-2.539-.626 6.007 6.007 0 0 0-2.943.796 5.532 5.532 0 0 0-2.135 2.162 5.843 5.843 0 0 0-.808 2.959c.001 1.057.28 2.096.808 3.015a5.934 5.934 0 0 0 2.135 2.163 5.687 5.687 0 0 0 2.943.796 5.312 5.312 0 0 0 2.483-.596 5.227 5.227 0 0 0 1.903-1.68v1.593c.02.47-.056.94-.224 1.38a3.47 3.47 0 0 1-.757 1.18 4.019 4.019 0 0 1-2.828.911A3.918 3.918 0 0 1 89 30.497a3.128 3.128 0 0 1-1.27-.968 1.984 1.984 0 0 1-.403-1.194h-2.02a3.66 3.66 0 0 0 .808 2.275 4.72 4.72 0 0 0 2.077 1.537c.85.384 1.777.578 2.712.569a6.895 6.895 0 0 0 2.886-.626 5.07 5.07 0 0 0 2.135-1.82c.55-.87.83-1.878.808-2.903V16.5h-2.02Zm-14.08 11.38h2.048V16.5h-2.02l-.028 11.38Zm0-13.428h2.048v-2.504h-2.02l-.028 2.504ZM76.13 27.88h2.02V11.465h-2.02V27.88Zm-4.502 0h2.02V11.465h-2.02V27.88Zm-11.195-6.487a3.75 3.75 0 0 1 1.27-2.39 3.993 3.993 0 0 1 2.597-.91 3.702 3.702 0 0 1 2.424.854c.358.307.65.681.858 1.102.208.42.328.877.353 1.344h-7.502Zm9.522 1.707c.048-.3.067-.606.058-.91a6.799 6.799 0 0 0-.693-3.016 5.63 5.63 0 0 0-1.962-2.219 5.25 5.25 0 0 0-3-.796 6.33 6.33 0 0 0-3.117.796 5.533 5.533 0 0 0-2.135 2.162 6.07 6.07 0 0 0-.75 3.073 6.07 6.07 0 0 0 .75 3.072 5.533 5.533 0 0 0 2.135 2.162 6.33 6.33 0 0 0 3.117.797 6.063 6.063 0 0 0 3.347-.967 4.837 4.837 0 0 0 1.904-2.504h-2.078a2.459 2.459 0 0 1-1.211 1.195 4.41 4.41 0 0 1-4.56-.398 3.595 3.595 0 0 1-.913-1.092 3.55 3.55 0 0 1-.413-1.355h9.521Zm-11.887-6.6h-2.25V12.86h-1.992V16.5H51.52v1.935h2.308v9.445h2.02v-9.474h2.25L58.07 16.5Zm-14.052 9.758a4.318 4.318 0 0 1-2.077-.512 4.126 4.126 0 0 1-1.5-1.48 4.304 4.304 0 0 1 0-4.096 3.731 3.731 0 0 1 1.5-1.48 4.465 4.465 0 0 1 4.155 0 4.127 4.127 0 0 1 1.5 1.48 4.304 4.304 0 0 1 0 4.097 3.73 3.73 0 0 1-1.5 1.479 4.009 4.009 0 0 1-2.078.512Zm4.126-14.31v6.487a5.003 5.003 0 0 0-1.898-1.676 5.085 5.085 0 0 0-2.487-.543 5.634 5.634 0 0 0-2.886.796 5.945 5.945 0 0 0-2.135 2.162 6.038 6.038 0 0 0 0 6.031 5.945 5.945 0 0 0 2.135 2.162c.87.52 1.868.796 2.886.797a5.214 5.214 0 0 0 2.539-.569 5.657 5.657 0 0 0 1.846-1.65v1.934h2.02V11.95h-2.02ZM29.966 26.286a4.32 4.32 0 0 1-2.078-.512 4.126 4.126 0 0 1-1.5-1.479 4.304 4.304 0 0 1 0-4.097 3.73 3.73 0 0 1 1.5-1.479 4.464 4.464 0 0 1 4.155 0 4.125 4.125 0 0 1 1.5 1.48 4.304 4.304 0 0 1 0 4.096 3.73 3.73 0 0 1-1.5 1.48 4.01 4.01 0 0 1-2.077.511Zm4.097-9.786v1.935a5.003 5.003 0 0 0-1.898-1.676 5.085 5.085 0 0 0-2.488-.543 5.891 5.891 0 0 0-2.947.799 5.785 5.785 0 0 0-2.13 2.16 6.04 6.04 0 0 0 0 6.03 5.785 5.785 0 0 0 2.13 2.16c.893.52 1.91.796 2.947.799a5.214 5.214 0 0 0 2.54-.569 5.657 5.657 0 0 0 1.846-1.65v1.934h2.02V16.5h-2.02Z"/></g><defs><clipPath id="a"><path fill="#fff" transform="translate(.16)" d="M0 0h128.684v33H0z"/></clipPath></defs></svg>