<svg width="595" height="500" fill="none" xmlns="http://www.w3.org/2000/svg"><mask id="a" style="mask-type:alpha" maskUnits="userSpaceOnUse" x="0" y="0" width="595" height="500"><path fill="#C4C4C4" d="M0 0h595v500H0z"/></mask><g mask="url(#a)"><mask id="b" style="mask-type:alpha" maskUnits="userSpaceOnUse" x="0" y="0" width="430" height="500"><path fill="#C4C4C4" d="M0 0h430v500H0z"/></mask><g mask="url(#b)"><path fill-rule="evenodd" clip-rule="evenodd" d="M46.795 687.461H0S187.848 109.284 207.75 48.049C217.062 19.398 243.757 0 273.877 0h83.657c25.228 0 46.283 10.656 59.374 28.663 13.082 18.009 16.793 41.05 9.165 64.557-7.639 23.506-14.854 45.696-21.459 66.027-8.918 27.452-33.624 46.367-62.189 47.906 0 0-.148-.048 39.875-123.234 3.534-10.87 2.244-21.511-3.308-29.143-5.541-7.63-14.892-12.146-27.265-12.146h-71.786c-14.096 0-26.587 9.077-30.948 22.485L46.795 687.46Z" fill="#F0145A"/><path fill-rule="evenodd" clip-rule="evenodd" d="M342.416 207.155h-94.318l41.558-126.394 47.017.278-27.301 83.355 46.877.028-13.833 42.733Z" fill="url(#c)"/><path transform="rotate(17.888 128.473 290.264)" fill="url(#d)" d="M128.473 290.264h44.551v220.604h-44.551z"/></g></g><defs><linearGradient id="c" x1="248.091" y1="182.946" x2="353.01" y2="237.784" gradientUnits="userSpaceOnUse"><stop stop-color="#F0145A"/><stop offset="1" stop-color="#693264"/></linearGradient><linearGradient id="d" x1="150.748" y1="290.264" x2="150.748" y2="510.868" gradientUnits="userSpaceOnUse"><stop offset=".167" stop-color="#323264" stop-opacity="0"/><stop offset="1" stop-color="#323264"/></linearGradient></defs></svg>