<svg width="112" height="49" fill="none" xmlns="http://www.w3.org/2000/svg"><path fill-rule="evenodd" clip-rule="evenodd" d="m21.667 3.749.174 1.225c-5.543 11.135 1.525 10.228 1.525 10.228l.892-.159.137.27c13.13-1.47 20.31 5.28 20.31 5.28C45.66 4.617 21.667 3.748 21.667 3.748Z" fill="#F8B829"/><path d="M13.421 41.368c-.558 3.675 2.48 5.807 2.963 4.63 1.34-1.726 1.81-1.224 2.48-3.821.245-.323.528-.615.843-.87a47.534 47.534 0 0 0 1.96-2.132 33.06 33.06 0 0 0 4.711-6.823 12.402 12.402 0 0 0 1.463-8.183 14.814 14.814 0 0 0-2.145-3.969 4.425 4.425 0 0 1-.372-2.009 5.66 5.66 0 0 0-.905-2.903 2.98 2.98 0 0 1-.793-2.315c.16-.931.16-1.85.297-2.781a11.174 11.174 0 0 0-.942-5.071s-.868-1.52-1.637-1.14a8.445 8.445 0 0 0-4.58-1.282c-1.62.02-3.198.504-4.546 1.393 0 0-17.755 11.208-1.748 32.744-.484 2.793 1.24 5.672 2.58 7.583" fill="#005D86"/><path d="m21.592 16.783-2.406-10.83s-1.413-4.164-5.133 1.09l-.62-.808c-3.422 4.79-8.06 10.535-7.03 16.758a7.901 7.901 0 0 0 1.176 3.231 8.01 8.01 0 0 0 2.444 2.441 7.67 7.67 0 0 0 9.647-.796c1.934-1.593 3.509-4.827 1.922-11.086Z" fill="#fff"/><path fill-rule="evenodd" clip-rule="evenodd" d="M24.394 15.35s11.482-1.764 20.31 5.28c0 0-8.307-10.768-21.55-8.772.013 0-.942 2.646 1.24 3.492Z" fill="#F19320"/><path d="M44.705 20.63a12.416 12.416 0 0 0-2.021-7.89c-.124-.159-1.08 1.899-1.092 2.083-.05.858.161 1.712.608 2.45.632 1.151 2.17 2.095 2.48 3.332" fill="#E95253"/><path d="M1.443 36.187a8.78 8.78 0 0 0 5.084.33c2.368.319 3.608 1.054 6.435 1.372 3.46 0 6.894-.367 10.329-.686 1.116-.098 3.596-.233 4.538.637.546.502.384 1.862.397 2.573a21.51 21.51 0 0 0-6.398-1.348c-2.48 0-5.047.11-7.564.086a28.969 28.969 0 0 1-5.12-.441c-1.575-.294-3.125-.698-4.7-1.017-1.14-.245-2.53-.44-3-1.506Z" fill="#9B5F48"/><path d="M23.551 38.391c0 .392-.347 1.225-.67 1.225-.322 0-.67-.82-.67-1.225v-1.384c0-.392.249-.784.571-.784.195.03.375.123.51.265a.865.865 0 0 1 .234.52l.025 1.383Z" fill="#969595"/><path d="M22.212 38.587c0 .307-.248.944-.508.944s-.509-.637-.509-.944v-1.09c0-.306.186-.612.447-.612a.634.634 0 0 1 .546.613l.024 1.09Z" fill="#838383"/><path d="M9.912 38.391c0 .392.347 1.225.67 1.225.322 0 .67-.82.67-1.225v-1.384c0-.392-.249-.784-.571-.784a.884.884 0 0 0-.51.265.865.865 0 0 0-.234.52l-.025 1.383Z" fill="#969595"/><path d="M11.251 38.587c0 .307.248.944.508.944s.509-.637.509-.944v-1.09c0-.306-.186-.612-.447-.612a.646.646 0 0 0-.385.208.633.633 0 0 0-.16.404l-.025 1.09Z" fill="#838383"/><path d="M24.121 11.613c.298-.698.844-2.867-.67-6.603-.272-.576-.954-1.91-2.405-1.225-.21.319 2.617 2.07 2.034 8.244 0 0-.732 2.585 1.314 3.308a4.67 4.67 0 0 1-.459-2.034c-.043-.57.02-1.143.186-1.69Zm-.136.245h.012-.012Z" fill="#003B55"/><path d="M21.667 9.334c.546 2.891-.918 4.533-3.819 4.57-2.232 0-5.48-.466-5.79-3.16-.26-2.34 1.24-5.513 3.645-6.224 3.335-1.004 5.443 1.972 5.976 4.814h-.012Z" fill="#F8B829"/><path d="M19.893 9.126a2.071 2.071 0 0 1-.39 2.011 2.12 2.12 0 0 1-.875.611c-.34.126-.707.164-1.066.11-1.413 0-3.385-.33-3.509-2.033a3.64 3.64 0 0 1 .525-2.215 3.707 3.707 0 0 1 1.744-1.485c1.997-.551 3.237 1.225 3.534 2.952l.037.05Z" fill="#005D86"/><path fill-rule="evenodd" clip-rule="evenodd" d="M18.803 8.759c0 .456-.184.894-.51 1.217-.327.322-.77.504-1.232.504-.463 0-.906-.181-1.232-.504a1.71 1.71 0 0 1 0-2.434 1.753 1.753 0 0 1 2.463 0c.327.322.51.76.51 1.217Z" fill="#151410"/><path fill-rule="evenodd" clip-rule="evenodd" d="M17.302 7.668c0 .307-.273 0-.273 0s.273-.318.273 0ZM16.322 7.656c-.173 0-.21.184-.235.38a.335.335 0 0 0-.2.207.326.326 0 0 0 .039.283s.843-.784.905-.735a.647.647 0 0 0-.509-.135Z" fill="#fff"/><path d="M44.035 35.917a.69.69 0 0 1 .521.22l1.463 1.544c-2.22 2.793-6.472 3.418-9.72 2.23a8.657 8.657 0 0 1-3.956-3.209 8.5 8.5 0 0 1-1.439-4.852 8.781 8.781 0 0 1 1.129-5.018 8.93 8.93 0 0 1 3.757-3.557 9.226 9.226 0 0 1 5.227-.739 9.173 9.173 0 0 1 4.767 2.246l-1.24 1.666c-.67.955-1.7-.098-2.393-.429a5.742 5.742 0 0 0-3.299-.441 5.207 5.207 0 0 0-2.935 1.737 5.097 5.097 0 0 0-1.206 3.163 6.395 6.395 0 0 0 .311 3.269 6.469 6.469 0 0 0 1.896 2.697 5.493 5.493 0 0 0 6.522-.343.964.964 0 0 1 .595-.184ZM51.04 22.185v18.057h-3.41V22.185h3.41ZM57.315 27.758v12.495h-3.373V27.758h3.373ZM57.724 24.133c0 2.609-4.19 2.621-4.19 0 0-2.622 4.19-2.622 4.19 0ZM69.38 30.54c-.533.71-1.104.269-1.699 0a3.546 3.546 0 0 0-2.418-.38c-1.71.38-2.207 2.107-2.256 3.675-.05 1.568.285 3.356 1.847 3.98a3.222 3.222 0 0 0 2.48-.085c.608-.282 1.475-1.347 2.108-.527l.967 1.225a6.652 6.652 0 0 1-3.23 1.863 6.712 6.712 0 0 1-3.738-.16 6.184 6.184 0 0 1-2.893-2.356 6.07 6.07 0 0 1-.988-3.573 6.127 6.127 0 0 1 .848-3.697 6.238 6.238 0 0 1 2.871-2.514 6.698 6.698 0 0 1 3.706-.306c1.239.25 2.38.845 3.288 1.715l-.893 1.14ZM75.468 22.185v10.253h.558a1.002 1.002 0 0 0 .868-.428l2.79-3.675a1.346 1.346 0 0 1 1.14-.564h3.088l-3.608 4.533c-.267.36-.604.665-.992.894.365.274.669.62.892 1.017l3.906 6.014h-3.038a1.253 1.253 0 0 1-1.14-.575l-2.852-4.582a.914.914 0 0 0-.905-.465h-.707v5.635H72.12V22.185h3.348ZM88.846 22.185v10.253h.558a1.002 1.002 0 0 0 .868-.428l2.79-3.675a1.347 1.347 0 0 1 1.14-.564h3.088l-3.633 4.557c-.266.361-.604.665-.992.894.365.275.67.621.893 1.017l3.905 6.015h-3.025a1.252 1.252 0 0 1-1.14-.576l-2.84-4.594a.915.915 0 0 0-.905-.465h-.707v5.635H85.46V22.185h3.385ZM103.738 43.598c-.086.214-.24.395-.439.516a1.103 1.103 0 0 1-.664.158h-2.48l2.356-5.072-5.072-11.49h2.964a.975.975 0 0 1 .568.15c.169.108.3.265.374.45l2.406 5.99c.173.474.322.947.446 1.421.149-.478.322-.955.508-1.433l2.232-5.966a.987.987 0 0 1 .918-.6h2.703l-6.82 15.876Z" fill="#fff"/></svg>