<svg width="136" height="55" fill="none" xmlns="http://www.w3.org/2000/svg"><path fill-rule="evenodd" clip-rule="evenodd" d="m25.542 1.667.215 1.524c-6.854 13.863 1.886 12.734 1.886 12.734l1.104-.198.168.335c16.238-1.83 25.116 6.573 25.116 6.573C55.212 2.75 25.542 1.666 25.542 1.666Z" fill="#F8B829"/><path d="M15.345 48.5c-.69 4.574 3.067 7.228 3.665 5.764 1.656-2.15 2.239-1.525 3.067-4.758a6.224 6.224 0 0 1 1.042-1.083 59.254 59.254 0 0 0 2.423-2.654 41.165 41.165 0 0 0 5.827-8.494 15.528 15.528 0 0 0 1.81-10.187 18.482 18.482 0 0 0-2.654-4.94 5.54 5.54 0 0 1-.46-2.502 7.079 7.079 0 0 0-1.119-3.614 3.716 3.716 0 0 1-.981-2.882c.2-1.16.2-2.303.368-3.462a13.993 13.993 0 0 0-1.165-6.314s-1.074-1.89-2.024-1.418a10.392 10.392 0 0 0-11.286.138s-21.957 13.953-2.162 40.763c-.598 3.477 1.534 7.06 3.19 9.44" fill="#005D86"/><path d="M25.45 17.893 22.475 4.412s-1.748-5.185-6.348 1.357l-.766-1.007c-4.232 5.963-9.967 13.115-8.694 20.862a9.878 9.878 0 0 0 1.455 4.022 9.939 9.939 0 0 0 3.022 3.04 9.438 9.438 0 0 0 11.93-.992c2.391-1.983 4.339-6.009 2.376-13.801Z" fill="#fff"/><path fill-rule="evenodd" clip-rule="evenodd" d="M28.915 16.108s14.199-2.196 25.116 6.573c0 0-10.273-13.405-26.65-10.919.016 0-1.165 3.294 1.534 4.346Z" fill="#F19320"/><path d="M54.032 22.681c.288-3.459-.591-6.915-2.5-9.821-.153-.198-1.334 2.364-1.349 2.593a5.314 5.314 0 0 0 .751 3.05c.782 1.433 2.684 2.607 3.067 4.148" fill="#E95253"/><path d="M.533 42.049c2.007.76 4.197.903 6.287.411 2.929.397 4.462 1.312 7.958 1.708 4.278 0 8.525-.457 12.772-.854 1.38-.122 4.447-.29 5.613.793.674.626.475 2.318.49 3.203a26.454 26.454 0 0 0-7.912-1.678c-3.067 0-6.24.138-9.353.107a35.593 35.593 0 0 1-6.333-.549c-1.947-.366-3.864-.87-5.811-1.266-1.41-.305-3.128-.549-3.71-1.875Z" fill="#9B5F48"/><path d="M27.873 44.794c0 .488-.43 1.525-.828 1.525-.399 0-.828-1.022-.828-1.526V43.07c0-.488.306-.976.705-.976a1.09 1.09 0 0 1 .92.976l.03 1.724Z" fill="#969595"/><path d="M26.216 45.038c0 .38-.306 1.174-.628 1.174s-.629-.793-.629-1.175V43.68c0-.381.23-.762.552-.762a.799.799 0 0 1 .675.762l.03 1.358Z" fill="#838383"/><path d="M11.006 44.794c0 .488.43 1.525.828 1.525.399 0 .828-1.022.828-1.526V43.07c0-.488-.307-.976-.706-.976a1.091 1.091 0 0 0-.92.976l-.03 1.724Z" fill="#969595"/><path d="M12.662 45.038c0 .38.307 1.174.629 1.174s.628-.793.628-1.175V43.68c0-.381-.23-.762-.552-.762a.798.798 0 0 0-.674.762l-.03 1.358Z" fill="#838383"/><path d="M28.578 11.457c.368-.87 1.043-3.568-.828-8.22-.337-.716-1.18-2.379-2.974-1.525-.261.397 3.235 2.578 2.514 10.264 0 0-.904 3.217 1.626 4.117a5.844 5.844 0 0 1-.568-2.531 5.78 5.78 0 0 1 .23-2.105Zm-.168.305h.015-.015Z" fill="#003B55"/><path d="M25.542 8.62c.674 3.6-1.135 5.643-4.723 5.689-2.76 0-6.777-.58-7.16-3.935-.323-2.913 1.533-6.862 4.507-7.747 4.125-1.25 6.732 2.455 7.39 5.993h-.014Z" fill="#F8B829"/><path d="M23.349 8.361a2.595 2.595 0 0 1-.484 2.504 2.623 2.623 0 0 1-2.399.897c-1.748 0-4.186-.412-4.34-2.532a4.556 4.556 0 0 1 .65-2.756 4.593 4.593 0 0 1 2.157-1.85C21.4 3.94 22.935 6.15 23.303 8.3l.046.061Z" fill="#005D86"/><path fill-rule="evenodd" clip-rule="evenodd" d="M22 7.904c0 .568-.227 1.113-.63 1.515a2.16 2.16 0 0 1-3.048 0 2.137 2.137 0 0 1 0-3.03 2.16 2.16 0 0 1 3.047 0c.404.402.631.947.631 1.515Z" fill="#151410"/><path fill-rule="evenodd" clip-rule="evenodd" d="M20.145 6.547c0 .38-.337 0-.337 0s.337-.397.337 0ZM18.933 6.531c-.215 0-.26.23-.291.473a.415.415 0 0 0-.263.44c.008.06.03.119.063.17 0 0 1.043-.976 1.12-.915a.799.799 0 0 0-.629-.168Z" fill="#fff"/><path d="M53.203 41.713a.848.848 0 0 1 .644.275l1.81 1.921c-2.745 3.477-8.004 4.255-12.022 2.776a10.72 10.72 0 0 1-4.891-3.994 10.633 10.633 0 0 1-1.779-6.04 10.992 10.992 0 0 1 1.396-6.248 11.076 11.076 0 0 1 4.646-4.428 11.34 11.34 0 0 1 12.358 1.876l-1.533 2.074c-.828 1.19-2.1-.122-2.96-.534a7.058 7.058 0 0 0-4.078-.549 6.431 6.431 0 0 0-3.63 2.162 6.37 6.37 0 0 0-1.492 3.938 8.011 8.011 0 0 0 .385 4.07 8.052 8.052 0 0 0 2.345 3.357 6.759 6.759 0 0 0 8.065-.427c.213-.156.472-.237.736-.229ZM61.866 24.618v22.478H57.65V24.618h4.217ZM69.625 31.557v15.555h-4.17V31.557h4.17ZM70.13 27.043c0 3.248-5.182 3.263-5.182 0 0-3.264 5.183-3.264 5.183 0ZM84.544 35.018c-.659.885-1.364.336-2.1 0a4.36 4.36 0 0 0-2.99-.472c-2.116.472-2.73 2.623-2.79 4.575-.062 1.952.352 4.178 2.284 4.956a3.96 3.96 0 0 0 3.066-.107c.752-.35 1.825-1.677 2.607-.656l1.196 1.525a8.214 8.214 0 0 1-3.995 2.32 8.246 8.246 0 0 1-4.622-.2 7.658 7.658 0 0 1-3.577-2.933 7.594 7.594 0 0 1-1.223-4.448 7.666 7.666 0 0 1 1.05-4.602 7.73 7.73 0 0 1 3.55-3.13 8.23 8.23 0 0 1 4.582-.38 8.202 8.202 0 0 1 4.066 2.134l-1.104 1.418ZM92.074 24.618v12.764h.69a1.232 1.232 0 0 0 1.073-.534l3.45-4.575a1.669 1.669 0 0 1 1.41-.701h3.819l-4.462 5.642c-.33.45-.747.828-1.227 1.113.452.342.827.773 1.104 1.266l4.83 7.488h-3.757a1.54 1.54 0 0 1-1.41-.717l-3.527-5.703a1.116 1.116 0 0 0-1.12-.58h-.873v7.015h-4.14V24.618h4.14ZM108.618 24.618v12.764h.69a1.229 1.229 0 0 0 1.073-.534l3.45-4.575a1.67 1.67 0 0 1 1.411-.701h3.818l-4.493 5.673c-.329.45-.747.828-1.227 1.113.452.342.828.773 1.104 1.266l4.83 7.487h-3.741a1.543 1.543 0 0 1-1.411-.716l-3.511-5.72a1.123 1.123 0 0 0-1.119-.58h-.874v7.016h-4.186V24.618h4.186ZM127.033 51.275a1.355 1.355 0 0 1-1.364.839h-3.067l2.913-6.314-6.271-14.304h3.665a1.197 1.197 0 0 1 1.165.747l2.975 7.457c.214.59.398 1.18.552 1.77.184-.596.398-1.19.628-1.785l2.76-7.427a1.215 1.215 0 0 1 1.135-.747h3.343l-8.434 19.764Z" fill="#fff"/></svg>