<svg width="144" height="36" fill="none" xmlns="http://www.w3.org/2000/svg"><g clip-path="url(#a)" fill="#fff"><path d="M36.502 18c0-4.055-1.388-7.99-3.94-11.17A18.281 18.281 0 0 0 22.444.482a18.484 18.484 0 0 0-11.928 1.215 18.137 18.137 0 0 0-8.59 8.253A17.778 17.778 0 0 0 .387 21.68a17.957 17.957 0 0 0 6.17 10.14 18.4 18.4 0 0 0 11.22 4.175A18.423 18.423 0 0 0 29.202 32.4H17.79a14.739 14.739 0 0 1-7.957-2.583 14.436 14.436 0 0 1-5.207-6.471 14.215 14.215 0 0 1-.744-8.229A14.34 14.34 0 0 1 7.844 7.84a14.662 14.662 0 0 1 7.366-3.932 14.792 14.792 0 0 1 8.346.708 14.57 14.57 0 0 1 6.578 5.115 14.269 14.269 0 0 1 2.645 7.838V28.8A17.555 17.555 0 0 0 36.502 18Z"/><path d="M27.364 26.988v-7.56h-5.67a3.896 3.896 0 0 1-1.716 1.858 3.977 3.977 0 0 1-2.512.43 3.947 3.947 0 0 1-2.25-1.183 3.835 3.835 0 0 1-.437-4.737 3.92 3.92 0 0 1 1.997-1.562 3.982 3.982 0 0 1 2.55-.025 3.924 3.924 0 0 1 2.028 1.523h5.73a9.066 9.066 0 0 0-2.475-4.317 9.26 9.26 0 0 0-4.404-2.394 9.346 9.346 0 0 0-5.022.24 9.228 9.228 0 0 0-4.149 2.802 9.037 9.037 0 0 0-2.04 4.533 8.982 8.982 0 0 0 .672 4.914 9.124 9.124 0 0 0 3.187 3.837 9.307 9.307 0 0 0 4.753 1.617l9.758.024ZM49.156 12.924a6.34 6.34 0 0 0-3.485 1.05 6.21 6.21 0 0 0-2.307 2.78 6.114 6.114 0 0 0-.352 3.577 6.166 6.166 0 0 0 1.72 3.168 6.306 6.306 0 0 0 3.216 1.691 6.36 6.36 0 0 0 3.625-.354 6.26 6.26 0 0 0 2.816-2.281 6.132 6.132 0 0 0 1.057-3.439 6.057 6.057 0 0 0-.462-2.382 6.126 6.126 0 0 0-1.363-2.019 6.225 6.225 0 0 0-2.05-1.34 6.295 6.295 0 0 0-2.415-.45Zm0 9.432a3.2 3.2 0 0 1-2.313-.938 3.116 3.116 0 0 1-.69-1.06 3.081 3.081 0 0 1-.21-1.242 3.14 3.14 0 0 1 .87-2.374 3.224 3.224 0 0 1 1.07-.74 3.262 3.262 0 0 1 3.628.74c.301.317.534.69.683 1.098.15.409.213.843.186 1.276a3.08 3.08 0 0 1-.21 1.245 3.114 3.114 0 0 1-.693 1.061 3.166 3.166 0 0 1-1.063.704c-.399.16-.827.239-1.258.23Zm11.364-7.08V13.2h-3.066v11.736h3.066V19.38a2.892 2.892 0 0 1 .25-1.32c.185-.415.465-.782.82-1.072a3.01 3.01 0 0 1 2.58-.596V13.02a3.69 3.69 0 0 0-2.198.54 3.612 3.612 0 0 0-1.452 1.716Zm14.211-.636a4.702 4.702 0 0 0-1.727-1.312 4.766 4.766 0 0 0-2.142-.404c-.791.03-1.57.216-2.288.544a6.007 6.007 0 0 0-1.901 1.37 5.915 5.915 0 0 0-1.222 1.983 5.854 5.854 0 0 0-.356 2.295c-.036.78.085 1.56.356 2.295.27.734.686 1.409 1.222 1.984a6.009 6.009 0 0 0 1.9 1.37 6.08 6.08 0 0 0 2.29.543 4.765 4.765 0 0 0 2.14-.404 4.701 4.701 0 0 0 1.728-1.312v1.392h3.067V13.2H74.73v1.44Zm-3.297 7.788a3.227 3.227 0 0 1-1.295-.221 3.19 3.19 0 0 1-1.094-.718 3.106 3.106 0 0 1-.909-2.373c0-.86.347-1.683.963-2.29a3.309 3.309 0 0 1 2.323-.95c.871 0 1.707.342 2.323.95.616.607.962 1.43.962 2.29a3.117 3.117 0 0 1-.904 2.36 3.238 3.238 0 0 1-2.369.952Zm15.647-9.504a4.088 4.088 0 0 0-1.985.371 4.028 4.028 0 0 0-1.555 1.273V13.2h-3.054v11.736h3.054v-6.288c0-2.04 1.119-2.904 2.616-2.904a2.231 2.231 0 0 1 1.743.658 2.143 2.143 0 0 1 .605 1.742v6.828h3.066v-7.2c0-3.108-1.971-4.848-4.49-4.848Zm16.098 1.788a4.504 4.504 0 0 0-1.674-1.357 4.571 4.571 0 0 0-2.123-.43c-.789.005-1.569.166-2.295.472a5.965 5.965 0 0 0-1.932 1.309 5.87 5.87 0 0 0-1.272 1.942 5.81 5.81 0 0 0-.414 2.276 5.797 5.797 0 0 0 .41 2.278 5.86 5.86 0 0 0 1.272 1.944 5.951 5.951 0 0 0 1.934 1.309 6.02 6.02 0 0 0 2.297.47 4.57 4.57 0 0 0 2.123-.432 4.504 4.504 0 0 0 1.674-1.357v1.272a2.715 2.715 0 0 1-.864 2.161 2.796 2.796 0 0 1-2.239.719 3.103 3.103 0 0 1-1.822-.335 3.044 3.044 0 0 1-1.293-1.309l-2.616 1.488a6.05 6.05 0 0 0 2.408 2.215c.994.506 2.11.732 3.226.653 3.127 0 6.193-1.74 6.193-5.58V13.2h-2.993v1.512Zm-3.322 7.428a3.278 3.278 0 0 1-1.783-.574 3.21 3.21 0 0 1-1.165-1.45 3.162 3.162 0 0 1-.157-1.843c.132-.617.446-1.181.902-1.622a3.264 3.264 0 0 1 1.661-.86 3.292 3.292 0 0 1 1.866.189c.59.243 1.094.651 1.449 1.175a3.18 3.18 0 0 1 .549 1.77 3.119 3.119 0 0 1-.95 2.322 3.215 3.215 0 0 1-2.372.894Zm14.662-9.216a6.165 6.165 0 0 0-2.42.432 6.09 6.09 0 0 0-2.048 1.34 5.996 5.996 0 0 0-1.343 2.03 5.922 5.922 0 0 0-.419 2.39c-.03.84.121 1.678.44 2.458.32.78.803 1.484 1.417 2.068a6.09 6.09 0 0 0 2.146 1.32 6.164 6.164 0 0 0 2.506.346 6.08 6.08 0 0 0 2.89-.612 5.99 5.99 0 0 0 2.245-1.896l-2.433-1.404a3.307 3.307 0 0 1-1.191.907 3.347 3.347 0 0 1-1.474.293 3.138 3.138 0 0 1-2.105-.479 3.068 3.068 0 0 1-1.278-1.717h9.004c.076-.396.116-.797.122-1.2a5.867 5.867 0 0 0-1.647-4.436 6.024 6.024 0 0 0-2.013-1.372 6.08 6.08 0 0 0-2.399-.468ZM111.404 18a2.908 2.908 0 0 1 1.091-1.789 2.986 2.986 0 0 1 2.024-.61 2.897 2.897 0 0 1 1.935.646A2.823 2.823 0 0 1 117.463 18h-6.059Zm20.173-3.372a4.698 4.698 0 0 0-1.707-1.294 4.765 4.765 0 0 0-2.113-.41 6.08 6.08 0 0 0-2.289.544 6.006 6.006 0 0 0-1.901 1.37 5.916 5.916 0 0 0-1.222 1.983 5.848 5.848 0 0 0-.356 2.295c-.036.78.085 1.56.356 2.295a5.915 5.915 0 0 0 1.222 1.984 6.008 6.008 0 0 0 1.901 1.37 6.081 6.081 0 0 0 2.289.543 4.762 4.762 0 0 0 2.141-.404 4.703 4.703 0 0 0 1.728-1.312v1.392h3.066V13.2h-3.066l-.049 1.428Zm-3.297 7.788a3.223 3.223 0 0 1-2.373-.948 3.133 3.133 0 0 1-.9-2.364c0-.86.346-1.683.962-2.29a3.31 3.31 0 0 1 2.323-.95 3.31 3.31 0 0 1 2.323.95c.616.607.962 1.43.962 2.29a3.119 3.119 0 0 1-.908 2.377 3.238 3.238 0 0 1-2.389.947v-.012Zm12.106-7.2V13.2h-3.066v11.736h3.066V19.38a2.898 2.898 0 0 1 1.07-2.392 3.007 3.007 0 0 1 2.58-.596V13.02a3.69 3.69 0 0 0-2.198.54 3.614 3.614 0 0 0-1.452 1.716v-.06Z"/></g><defs><clipPath id="a"><path fill="#fff" d="M0 0h144v36H0z"/></clipPath></defs></svg>